<svg height="512" viewBox="0 0 38 58" width="512" xmlns="http://www.w3.org/2000/svg"><g id="Page-1" fill="none" fill-rule="evenodd"><g id="047---Broken-Light-Bulb" fill-rule="nonzero"><path id="Shape" d="m12 45h14v11c0 1.1045695-.8954305 2-2 2h-10c-1.1045695 0-2-.8954305-2-2z" fill="#7f8c8d"/><path id="Shape" d="m38 19c.0058617 5.4622069-2.3538211 10.6593442-6.47 14.25-2.917685 2.6329243-4.5669272 6.3901384-4.53 10.32v1.43c0 .5522847-.4477153 1-1 1h-14c-.5522847 0-1-.4477153-1-1v-1.43c.0388413-3.927368-1.61097833-7.6822556-4.53-10.31-3.14990971-2.7503848-5.29874024-6.4677561-6.11-10.57-.24193656-1.2150381-.3625291-2.4511116-.36-3.69v-1c0-.5522847.44771525-1 1-1h6l.33-2 .53-3.16c.07865688-.4852851.49838375-.841417.99-.84h6.15l-.4-2-.51-2.54c-.0596261-.2958216.0216756-.6025508.22-.83l4.38-5.26c.1949981-.2405425.4904303-.37717988.8-.37 10.3015672.26575982 18.5134275 8.69500594 18.51 19z" fill="#f0c419"/><path id="Shape" d="m38 19c.0025291 1.2388884-.1180634 2.4749619-.36 3.69-3.6186855 6.9504987-10.8039093 11.3103297-18.64 11.3103297s-15.02131446-4.359831-18.64-11.3103297c-.24193656-1.2150381-.3625291-2.4511116-.36-3.69v-1c0-.5522847.44771525-1 1-1h6l.33-2 .53-3.16c.07865688-.4852851.49838375-.841417.99-.84h6.15l-.4-2-.51-2.54c-.0596261-.2958216.0216756-.6025508.22-.83l4.38-5.26c.1949981-.2405425.4904303-.37717988.8-.37 10.3015672.26575982 18.5134275 8.69500594 18.51 19z" fill="#f3d55b"/><path id="Shape" d="m27 51h-16c-.5522847 0-1-.4477153-1-1s.4477153-1 1-1h16c.5522847 0 1 .4477153 1 1s-.4477153 1-1 1z" fill="#95a5a5"/><path id="Shape" d="m27 55h-16c-.5522847 0-1-.4477153-1-1s.4477153-1 1-1h16c.5522847 0 1 .4477153 1 1s-.4477153 1-1 1z" fill="#95a5a5"/><path id="Shape" d="m19 20c0 .5522847-.4477153 1-1 1h-5c-.3773574.001676-.722712-.2117454-.89-.55l-1.73-3.45h-3.38l.33-2h3.67c.3773574-.001676.722712.2117454.89.55l1.73 3.45h4.38c.5522847 0 1 .4477153 1 1z" fill="#f0c419"/><path id="Shape" d="m26 7c0 .55228475-.4477153 1-1 1h-3.46l-1.71 2.55c-.1839835.2793852-.4954809.4482694-.83.45h-4l-.4-2h3.86l1.71-2.55c.1839835-.27938521.4954809-.44826935.83-.45h4c.5522847 0 1 .44771525 1 1z" fill="#f0c419"/><path id="Shape" d="m17.887 36.872c-.0384435.0001252-.0768555-.0022129-.115-.007-.5482802-.0632098-.9416862-.5586597-.879-1.107.417-3.623-.349-5.867-2.34-6.863-.3197527-.1598764-.5299234-.4781942-.5513427-.8350464-.0214194-.3568521.1491666-.6980242.4475-.895.2983333-.1969758.67909-.21983.9988427-.0599536 2.795 1.4 3.949 4.386 3.431 8.881-.0578673.5043038-.4843876.8852483-.992.886z" fill="#e57e25"/><path id="Shape" d="m20.127 36.984c-.505959.0001144-.9322849-.3776971-.993-.88-.551-4.561.6-7.589 3.418-9 .4942949-.2485281 1.0964719-.0492949 1.345.445s.0492949 1.0964719-.445 1.345c-2.012 1-2.773 3.285-2.326 6.969.0321721.2635307-.0417696.5290384-.2055281.738004s-.4038913.3442357-.6674719.375996c-.046.005-.086.007-.126.007z" fill="#e57e25"/><path id="Shape" d="m17 34h4c.5522847 0 1 .4477153 1 1v11h-6v-11c0-.5522847.4477153-1 1-1z" fill="#95a5a5"/></g></g></svg>